<?xml version="1.0"?>
<svg xmlns="http://www.w3.org/2000/svg" xmlns:xlink="http://www.w3.org/1999/xlink" version="1.1" id="Layer_1" x="0px" y="0px" viewBox="0 0 368.373 368.373" style="enable-background:new 0 0 368.373 368.373;" xml:space="preserve" width="512px" height="512px" class=""><g><g id="XMLID_31_">
	<path id="XMLID_71_" d="M295.192,210.117c-5.857-5.857-15.355-5.857-21.213,0l-10.607,10.606l-10.606-10.606   c-5.857-5.857-15.355-5.857-21.213,0c-5.857,5.857-5.857,15.355,0,21.213l10.606,10.606l-10.606,10.606   c-5.857,5.857-5.857,15.356,0,21.213c2.929,2.929,6.768,4.394,10.606,4.394c3.839,0,7.678-1.465,10.606-4.394l10.606-10.606   l10.607,10.606c2.929,2.929,6.767,4.394,10.606,4.394c3.839,0,7.678-1.465,10.607-4.394c5.857-5.857,5.857-15.355,0-21.213   l-10.607-10.606l10.607-10.606C301.05,225.473,301.05,215.975,295.192,210.117z" data-original="#000000" class="active-path" data-old_color="#F0EFEF" fill="#FCFDFD"/>
	<path id="XMLID_85_" d="M263.373,136.936c-34.485,0-65.14,16.713-84.293,42.463c-7.653-1.61-15.582-2.463-23.707-2.463   c-8.643,0-17.064,0.965-25.165,2.781c-38.121,8.543-69.149,36.066-82.606,72.092c-4.669,12.5-7.229,26.02-7.229,40.127   c0,8.284,6.716,15,15,15h125.596c19.246,24.348,49.03,40,82.404,40c57.898,0,105-47.103,105-105S321.271,136.936,263.373,136.936z    M263.373,316.936c-13.592,0-26.339-3.652-37.344-10c-22.48-12.967-37.656-37.236-37.656-65c0-20.01,7.892-38.199,20.708-51.662   c13.67-14.359,32.946-23.338,54.292-23.338c41.355,0,75,33.645,75,75S304.728,316.936,263.373,316.936z" data-original="#000000" class="active-path" data-old_color="#F0EFEF" fill="#FCFDFD"/>
	<path id="XMLID_88_" d="M32.622,84.186c0,23.666,18.367,43.109,41.594,44.857c-7.382-13.302-11.594-28.596-11.594-44.857   s4.212-31.556,11.594-44.857C50.989,41.077,32.622,60.52,32.622,84.186z" data-original="#000000" class="active-path" data-old_color="#F0EFEF" fill="#FCFDFD"/>
	<path id="XMLID_89_" d="M93.489,160.825c-5.17-1.077-10.482-1.639-15.867-1.639C34.821,159.186,0,194.008,0,236.809   c0,8.284,6.716,15,15,15h1.025C27.627,211.581,56.218,178.487,93.489,160.825z" data-original="#000000" class="active-path" data-old_color="#F0EFEF" fill="#FCFDFD"/>
	<path id="XMLID_90_" d="M155.373,21.436c-21.093,0-39.774,10.473-51.157,26.478c-7.289,10.25-11.594,22.764-11.594,36.271   s4.305,26.021,11.594,36.271c11.383,16.006,30.064,26.479,51.157,26.479c34.601,0,62.75-28.149,62.75-62.75   S189.974,21.436,155.373,21.436z" data-original="#000000" class="active-path" data-old_color="#F0EFEF" fill="#FCFDFD"/>
</g></g> </svg>
