<?xml version="1.0" encoding="utf-8"?>
<!-- Generator: Adobe Illustrator 19.1.1, SVG Export Plug-In . SVG Version: 6.00 Build 0)  -->
<svg version="1.1" id="Layer_1" xmlns="http://www.w3.org/2000/svg" xmlns:xlink="http://www.w3.org/1999/xlink" x="0px" y="0px"
	 viewBox="0 0 500 180" style="enable-background:new 0 0 500 180;" xml:space="preserve">
<style type="text/css">
	.st0{display:none;}
	.st1{display:inline;}
	.st2{fill:none;stroke:#404447;stroke-width:10;stroke-linecap:round;stroke-miterlimit:10;}
	.st3{fill:none;stroke:#1BC9FF;stroke-width:14;stroke-linecap:round;stroke-miterlimit:10;}
	.st4{fill:#404447;}
	.st5{display:inline;fill:none;stroke:#1BC9FF;stroke-width:14;stroke-linecap:round;stroke-miterlimit:10;}
	.st6{fill:#5A5D63;}
	.st7{fill:#0097D7;}
</style>
<image style="display:none;overflow:visible;" width="600" height="400" xlink:href="1421C9A7.jpg"  transform="matrix(1 0 0 1 -43.625 107.875)">
</image>
<g class="st0">
	<g class="st1">
		<line class="st2" x1="115.3" y1="331.7" x2="102" y2="331.7"/>
		<path class="st3" d="M128.8,320.7c0,0,15.5,10.5,17.2,37"/>
		<line class="st2" x1="91.4" y1="349.5" x2="122.4" y2="349.5"/>
		<path class="st3" d="M71.1,247.2c0,0-1.8,22.8,16.4,37.4"/>
		<path class="st3" d="M144.6,246.5c0,0,4.9,37.4-32.7,53.8C91.8,309,72.8,324.1,71.1,358"/>
		<line class="st2" x1="114.3" y1="274.7" x2="101" y2="274.7"/>
		<line class="st2" x1="92.4" y1="256.5" x2="123.4" y2="256.5"/>
	</g>
	<g class="st1">
		<line class="st3" x1="180.6" y1="247.2" x2="180.6" y2="357.6"/>
	</g>
	<g class="st1">
		<path class="st4" d="M214.8,363.5c-3.3,0-5.9-2.6-5.9-5.9V287c0-3.3,2.6-5.9,5.9-5.9h26.5h0.1c8.8,0.2,18.5,3.7,24,9.4
			c6.1,6.2,8.5,21.1,8.2,31.8c0.2,10.7-2.1,25.6-8.2,31.8c-5.5,5.8-15.2,9.2-24,9.4h-0.1H214.8z M220.7,351.7h20.5
			c6.9-0.2,12.1-2,15.8-5.8v-0.1c3.5-3.7,5.2-13.5,4.9-23.4v-0.2c0.2-9.9-1.4-19.8-4.9-23.4v-0.1c-3.6-3.8-8.8-5.5-15.8-5.8h-20.5
			V351.7z"/>
		<path class="st4" d="M304.3,357.6c0,7.9-11.8,7.9-11.8,0V287c0-3.3,2.6-5.9,5.9-5.9h12.1c2.5,0,4.6,1.4,5.5,3.8l25.9,66.9h2.4V287
			c0-7.9,11.8-7.9,11.8,0v70.7c0,3.3-2.6,5.9-5.9,5.9H338c-2.5,0-4.6-1.4-5.5-3.8l-25.9-66.9h-2.2V357.6z"/>
		<path class="st4" d="M386.3,346c-0.5,0-1-0.1-1.5-0.1l-4.2,13.6c-2.4,7.4-13.5,4-11.3-3.5l21.8-70.7c0.8-2.5,3.1-4.1,5.7-4.1h14.1
			c2.6,0,4.8,1.6,5.7,4.1l21.8,70.7c2.2,7.5-8.9,11-11.3,3.5l-4.2-13.6c-0.5,0.1-1.1,0.2-1.7,0.2H386.3z M419.3,334.2l-12.7-41.3
			h-5.4l-12.7,41.3H419.3z"/>
	</g>
	<line class="st5" x1="167.6" y1="247.2" x2="193" y2="247.2"/>
	<line class="st5" x1="167.6" y1="357.6" x2="193" y2="357.6"/>
</g>
<g>
	<g>
		<path class="st6" d="M97.7,75.8l7.2,19.5c0.7,2.2,1.6,4.8,2.1,6.7h0.1c0.6-2,1.3-4.5,2.1-6.9l6.5-19.3h6.3l-9,23.5
			c-4.3,11.3-7.2,17.1-11.3,20.6c-2.9,2.6-5.8,3.6-7.3,3.9l-1.5-5c1.5-0.5,3.5-1.4,5.2-2.9c1.6-1.3,3.7-3.6,5-6.7
			c0.3-0.6,0.5-1.1,0.5-1.4c0-0.3-0.1-0.8-0.4-1.6L91.2,75.8H97.7z"/>
		<path class="st6" d="M126.4,102.6c1.8,1.2,4.9,2.4,7.9,2.4c4.4,0,6.4-2.2,6.4-4.9c0-2.9-1.7-4.4-6.1-6.1c-5.9-2.1-8.7-5.4-8.7-9.3
			c0-5.3,4.3-9.7,11.4-9.7c3.3,0,6.3,1,8.1,2l-1.5,4.4c-1.3-0.8-3.7-1.9-6.7-1.9c-3.5,0-5.5,2-5.5,4.5c0,2.7,2,3.9,6.3,5.6
			c5.7,2.2,8.6,5,8.6,9.9c0,5.8-4.5,9.9-12.3,9.9c-3.6,0-6.9-0.9-9.2-2.2L126.4,102.6z"/>
		<path class="st6" d="M161.3,66.4v9.5h8.6v4.6h-8.6v17.8c0,4.1,1.2,6.4,4.5,6.4c1.6,0,2.7-0.2,3.5-0.4l0.3,4.5
			c-1.2,0.5-3,0.8-5.3,0.8c-2.8,0-5-0.9-6.5-2.5c-1.7-1.8-2.3-4.7-2.3-8.6v-18h-5.1v-4.6h5.1v-7.9L161.3,66.4z"/>
		<path class="st6" d="M179.5,93.4c0.1,8.1,5.3,11.4,11.3,11.4c4.3,0,6.9-0.7,9.1-1.7l1,4.3c-2.1,1-5.7,2-10.9,2
			c-10.1,0-16.2-6.7-16.2-16.6s5.8-17.8,15.4-17.8c10.7,0,13.6,9.5,13.6,15.5c0,1.2-0.1,2.2-0.2,2.8H179.5z M197.1,89.1
			c0.1-3.8-1.6-9.7-8.3-9.7c-6.1,0-8.7,5.6-9.2,9.7H197.1z"/>
		<path class="st6" d="M210.3,84.7c0-3.4-0.1-6.2-0.3-8.9h5.2l0.3,5.3h0.2c1.8-3.1,4.9-6.1,10.3-6.1c4.5,0,7.9,2.7,9.3,6.6h0.1
			c1-1.8,2.3-3.3,3.7-4.3c2-1.5,4.1-2.3,7.3-2.3c4.4,0,10.8,2.9,10.8,14.3v19.4h-5.8V90.1c0-6.3-2.3-10.1-7.1-10.1
			c-3.4,0-6.1,2.5-7.1,5.4c-0.3,0.8-0.5,1.9-0.5,3v20.3h-5.8V89c0-5.2-2.3-9-6.9-9c-3.7,0-6.5,3-7.4,6c-0.3,0.9-0.5,1.9-0.5,2.9
			v19.9h-5.8V84.7z"/>
		<path class="st6" d="M266.2,102.6c1.8,1.2,4.9,2.4,7.9,2.4c4.4,0,6.4-2.2,6.4-4.9c0-2.9-1.7-4.4-6.1-6.1c-5.9-2.1-8.7-5.4-8.7-9.3
			c0-5.3,4.3-9.7,11.4-9.7c3.3,0,6.3,1,8.1,2l-1.5,4.4c-1.3-0.8-3.7-1.9-6.7-1.9c-3.5,0-5.5,2-5.5,4.5c0,2.7,2,3.9,6.3,5.6
			c5.7,2.2,8.6,5,8.6,9.9c0,5.8-4.5,9.9-12.3,9.9c-3.6,0-6.9-0.9-9.2-2.2L266.2,102.6z"/>
	</g>
	<g>
		<path class="st7" d="M300.2,60.1h22.3c4.4,0,8,0.6,10.7,1.8s5,2.9,6.7,5.1c1.8,2.2,3.1,4.8,3.9,7.8c0.8,3,1.2,6.1,1.2,9.4
			c0,5.2-0.6,9.2-1.8,12.1c-1.2,2.9-2.8,5.3-4.9,7.2c-2.1,1.9-4.4,3.2-6.8,3.9c-3.3,0.9-6.3,1.3-9,1.3h-22.3V60.1z M315.2,71.1v26.6
			h3.7c3.1,0,5.4-0.3,6.7-1s2.4-1.9,3.1-3.7c0.8-1.7,1.1-4.6,1.1-8.5c0-5.2-0.8-8.7-2.5-10.6c-1.7-1.9-4.5-2.9-8.4-2.9H315.2z"/>
		<path class="st7" d="M353,60.1h14L385.4,87V60.1h14.2v48.7h-14.2L367.1,82v26.7H353V60.1z"/>
		<path class="st7" d="M438.8,100.7h-17.1l-2.4,8H404l18.3-48.7h16.4l18.3,48.7h-15.8L438.8,100.7z M435.7,90.2l-5.4-17.5L425,90.2
			H435.7z"/>
	</g>
</g>
<path class="st7" d="M86.8,87.8c-1.8-2.2-4-3.9-6.6-5.3c-2.6-1.4-5.5-2.5-8.6-3.3c-3.1-0.8-6-1.6-8.6-2.4c-0.6-0.2-1.1-0.4-1.7-0.5
	h10.1c0.5,0.7,1.2,1.1,2.1,1.1c1.4,0,2.6-1.1,2.6-2.6s-1.1-2.6-2.6-2.6c-0.9,0-1.7,0.5-2.2,1.3H55.5c-1-0.8-1.6-1.8-1.7-2.9h22.8
	c0.5,0.6,1.2,1.1,2.1,1.1c1.4,0,2.6-1.1,2.6-2.6s-1.1-2.6-2.6-2.6c-1,0-1.8,0.5-2.2,1.3H54.3c0.3-0.6,0.6-1.1,1.1-1.5
	c0.9-0.7,2.6-1.1,5.1-1.1h21.2c2.7,0,4.9-2.2,4.9-4.9v0c0-2.7-2.2-4.9-4.9-4.9H62.3c-6.2,0-11,1.3-14.3,3.9c-3.3,2.6-5,6.4-5,11.4
	c0,3.3,0.9,6,2.6,8c1.8,2,4,3.7,6.6,5.1c2.6,1.3,5.5,2.4,8.6,3.3c3.1,0.9,6,1.7,8.6,2.5c2.1,0.6,3.8,1.4,5.4,2.1H61.1
	c-0.5-0.6-1.2-1.1-2.1-1.1c-1.4,0-2.6,1.1-2.6,2.6s1.1,2.6,2.6,2.6c1,0,1.8-0.5,2.2-1.3h16.8c0.4,0.6,0.5,1.3,0.5,2.1
	c0,0.1,0,0.3,0,0.4H54.3c-0.4-0.7-1.2-1.2-2.2-1.2c-1.4,0-2.6,1.1-2.6,2.6s1.1,2.6,2.6,2.6c0.9,0,1.7-0.5,2.1-1.1h23.6
	c-0.2,0.3-0.5,0.7-0.8,0.9c-1,0.9-2.7,1.4-5.2,1.4h-24c-2.7,0-4.9,2.2-4.9,4.9s2.2,4.9,4.9,4.9h24c5,0,9.2-1.3,12.5-3.9
	c3.3-2.6,5-6.5,5-11.9C89.5,92.7,88.6,90,86.8,87.8z"/>
<image style="display:none;overflow:visible;" width="350" height="280" xlink:href="1421C9A2.jpg"  transform="matrix(1 0 0 1 265 294)">
</image>
<image style="display:none;overflow:visible;" width="768" height="477" xlink:href="1421C9A1.jpg"  transform="matrix(1 0 0 1 -325.4167 498.6667)">
</image>
<image style="display:none;overflow:visible;" width="450" height="470" xlink:href="1421C9AD.jpg"  transform="matrix(1 0 0 1 63 181)">
</image>
</svg>
